<mxfile host="app.diagrams.net" modified="2021-05-31T01:07:39.605Z" agent="5.0 (Windows NT 10.0; WOW64) AppleWebKit/537.36 (KHTML, like Gecko) Chrome/90.0.4430.212 Safari/537.36" etag="t8bTtTK8693GUyTSpHea" version="14.6.13" type="github">
  <diagram id="VaH1q0ei8CaEzNoCNGoC" name="Page-1">
    <mxGraphModel dx="1422" dy="1931" grid="0" gridSize="10" guides="1" tooltips="1" connect="1" arrows="0" fold="1" page="1" pageScale="1" pageWidth="827" pageHeight="1169" math="0" shadow="0">
      <root>
        <mxCell id="0" />
        <mxCell id="1" parent="0" />
        <mxCell id="dXeh0rGKIshTzWoHDZAY-2" value="" style="rounded=0;whiteSpace=wrap;html=1;strokeWidth=10;fillColor=#eeeeee;strokeColor=none;" vertex="1" parent="1">
          <mxGeometry x="262" y="-654" width="342" height="512" as="geometry" />
        </mxCell>
        <mxCell id="dXeh0rGKIshTzWoHDZAY-3" value="" style="rounded=0;whiteSpace=wrap;html=1;fillColor=#dae8fc;strokeColor=#6c8ebf;" vertex="1" parent="1">
          <mxGeometry x="268" y="-198" width="86" height="42" as="geometry" />
        </mxCell>
        <mxCell id="dXeh0rGKIshTzWoHDZAY-4" value="" style="rounded=0;whiteSpace=wrap;html=1;fillColor=#dae8fc;strokeColor=#6c8ebf;" vertex="1" parent="1">
          <mxGeometry x="354" y="-198" width="80" height="42" as="geometry" />
        </mxCell>
        <mxCell id="dXeh0rGKIshTzWoHDZAY-5" value="" style="rounded=0;whiteSpace=wrap;html=1;fillColor=#dae8fc;strokeColor=#6c8ebf;" vertex="1" parent="1">
          <mxGeometry x="434" y="-198" width="82" height="42" as="geometry" />
        </mxCell>
        <mxCell id="dXeh0rGKIshTzWoHDZAY-6" value="" style="rounded=0;whiteSpace=wrap;html=1;fillColor=#dae8fc;strokeColor=#6c8ebf;" vertex="1" parent="1">
          <mxGeometry x="516" y="-198" width="79" height="42" as="geometry" />
        </mxCell>
        <mxCell id="dXeh0rGKIshTzWoHDZAY-7" value="" style="rounded=0;whiteSpace=wrap;html=1;fillColor=#d5e8d4;strokeColor=#82b366;" vertex="1" parent="1">
          <mxGeometry x="268" y="-641" width="327" height="122" as="geometry" />
        </mxCell>
        <mxCell id="dXeh0rGKIshTzWoHDZAY-8" value="" style="rounded=0;whiteSpace=wrap;html=1;fillColor=#d5e8d4;strokeColor=#82b366;" vertex="1" parent="1">
          <mxGeometry x="269.5" y="-512" width="327" height="111" as="geometry" />
        </mxCell>
        <mxCell id="dXeh0rGKIshTzWoHDZAY-9" value="" style="rounded=0;whiteSpace=wrap;html=1;fillColor=#d5e8d4;strokeColor=#82b366;" vertex="1" parent="1">
          <mxGeometry x="268" y="-395" width="329" height="189" as="geometry" />
        </mxCell>
        <mxCell id="dXeh0rGKIshTzWoHDZAY-11" value="" style="rounded=0;whiteSpace=wrap;html=1;fillColor=#ffcccc;strokeColor=#36393d;" vertex="1" parent="1">
          <mxGeometry x="279" y="-630" width="305" height="100" as="geometry" />
        </mxCell>
        <mxCell id="dXeh0rGKIshTzWoHDZAY-39" style="edgeStyle=orthogonalEdgeStyle;rounded=0;orthogonalLoop=1;jettySize=auto;html=1;exitX=0.5;exitY=1;exitDx=0;exitDy=0;entryX=0.523;entryY=-0.002;entryDx=0;entryDy=0;entryPerimeter=0;strokeColor=#A9C4EB;" edge="1" parent="1" source="dXeh0rGKIshTzWoHDZAY-23">
          <mxGeometry relative="1" as="geometry">
            <mxPoint x="440.866" y="-654.038" as="targetPoint" />
          </mxGeometry>
        </mxCell>
        <mxCell id="dXeh0rGKIshTzWoHDZAY-23" value="页面" style="shape=process;whiteSpace=wrap;html=1;backgroundOutline=1;fillColor=#ffffff;" vertex="1" parent="1">
          <mxGeometry x="381" y="-755" width="120" height="60" as="geometry" />
        </mxCell>
        <mxCell id="dXeh0rGKIshTzWoHDZAY-37" style="edgeStyle=orthogonalEdgeStyle;rounded=0;orthogonalLoop=1;jettySize=auto;html=1;exitX=1;exitY=0.5;exitDx=0;exitDy=0;entryX=0;entryY=0.5;entryDx=0;entryDy=0;strokeColor=#A9C4EB;" edge="1" parent="1" source="dXeh0rGKIshTzWoHDZAY-24">
          <mxGeometry relative="1" as="geometry">
            <mxPoint x="279" y="-477.5" as="targetPoint" />
          </mxGeometry>
        </mxCell>
        <mxCell id="dXeh0rGKIshTzWoHDZAY-24" value="元素组" style="shape=process;whiteSpace=wrap;html=1;backgroundOutline=1;fillColor=#ffffff;" vertex="1" parent="1">
          <mxGeometry x="54" y="-507.5" width="120" height="60" as="geometry" />
        </mxCell>
        <mxCell id="dXeh0rGKIshTzWoHDZAY-38" style="edgeStyle=orthogonalEdgeStyle;rounded=0;orthogonalLoop=1;jettySize=auto;html=1;exitX=0.5;exitY=0;exitDx=0;exitDy=0;strokeColor=#A9C4EB;" edge="1" parent="1" source="dXeh0rGKIshTzWoHDZAY-25" target="dXeh0rGKIshTzWoHDZAY-4">
          <mxGeometry relative="1" as="geometry" />
        </mxCell>
        <mxCell id="dXeh0rGKIshTzWoHDZAY-25" value="频道" style="shape=process;whiteSpace=wrap;html=1;backgroundOutline=1;fillColor=#ffffff;" vertex="1" parent="1">
          <mxGeometry x="334" y="-124" width="120" height="60" as="geometry" />
        </mxCell>
        <mxCell id="dXeh0rGKIshTzWoHDZAY-34" style="edgeStyle=orthogonalEdgeStyle;rounded=0;orthogonalLoop=1;jettySize=auto;html=1;exitX=1;exitY=0.5;exitDx=0;exitDy=0;entryX=0;entryY=0.5;entryDx=0;entryDy=0;strokeColor=#A9C4EB;" edge="1" parent="1" source="dXeh0rGKIshTzWoHDZAY-26" target="dXeh0rGKIshTzWoHDZAY-7">
          <mxGeometry relative="1" as="geometry" />
        </mxCell>
        <mxCell id="dXeh0rGKIshTzWoHDZAY-26" value="楼层" style="shape=process;whiteSpace=wrap;html=1;backgroundOutline=1;fillColor=#ffffff;" vertex="1" parent="1">
          <mxGeometry x="54" y="-610" width="120" height="60" as="geometry" />
        </mxCell>
        <mxCell id="dXeh0rGKIshTzWoHDZAY-42" value="" style="rounded=0;whiteSpace=wrap;html=1;fillColor=#ffcccc;strokeColor=#36393d;" vertex="1" parent="1">
          <mxGeometry x="280.5" y="-506.5" width="305" height="100" as="geometry" />
        </mxCell>
        <mxCell id="dXeh0rGKIshTzWoHDZAY-43" value="" style="rounded=0;whiteSpace=wrap;html=1;fillColor=#ffcccc;strokeColor=#36393d;" vertex="1" parent="1">
          <mxGeometry x="279" y="-395" width="307" height="177" as="geometry" />
        </mxCell>
        <mxCell id="dXeh0rGKIshTzWoHDZAY-44" value="" style="rounded=0;whiteSpace=wrap;html=1;strokeWidth=10;fillColor=#e3c800;fontColor=#000000;strokeColor=none;" vertex="1" parent="1">
          <mxGeometry x="286" y="-620" width="120" height="80" as="geometry" />
        </mxCell>
        <mxCell id="dXeh0rGKIshTzWoHDZAY-45" value="" style="rounded=0;whiteSpace=wrap;html=1;strokeWidth=10;fillColor=#1ba1e2;fontColor=#ffffff;strokeColor=none;" vertex="1" parent="1">
          <mxGeometry x="406" y="-620" width="166" height="35" as="geometry" />
        </mxCell>
        <mxCell id="dXeh0rGKIshTzWoHDZAY-46" value="" style="rounded=0;whiteSpace=wrap;html=1;strokeWidth=10;fillColor=#dae8fc;gradientColor=#7ea6e0;strokeColor=none;" vertex="1" parent="1">
          <mxGeometry x="406" y="-580" width="166" height="40" as="geometry" />
        </mxCell>
        <mxCell id="dXeh0rGKIshTzWoHDZAY-48" value="" style="rounded=0;whiteSpace=wrap;html=1;strokeWidth=10;fillColor=#ffff88;strokeColor=none;" vertex="1" parent="1">
          <mxGeometry x="288" y="-494" width="284" height="39" as="geometry" />
        </mxCell>
        <mxCell id="dXeh0rGKIshTzWoHDZAY-49" value="" style="rounded=0;whiteSpace=wrap;html=1;strokeWidth=10;fillColor=#fa6800;fontColor=#000000;strokeColor=none;" vertex="1" parent="1">
          <mxGeometry x="288" y="-455" width="120" height="39" as="geometry" />
        </mxCell>
        <mxCell id="dXeh0rGKIshTzWoHDZAY-50" value="" style="rounded=0;whiteSpace=wrap;html=1;strokeWidth=10;fillColor=#cdeb8b;strokeColor=none;" vertex="1" parent="1">
          <mxGeometry x="417" y="-455" width="155" height="39" as="geometry" />
        </mxCell>
        <mxCell id="dXeh0rGKIshTzWoHDZAY-51" value="" style="rounded=0;whiteSpace=wrap;html=1;strokeWidth=10;fillColor=#1ba1e2;fontColor=#ffffff;strokeColor=none;" vertex="1" parent="1">
          <mxGeometry x="287" y="-383" width="286" height="52" as="geometry" />
        </mxCell>
        <mxCell id="dXeh0rGKIshTzWoHDZAY-52" value="" style="rounded=0;whiteSpace=wrap;html=1;strokeWidth=10;fillColor=#fff2cc;gradientColor=#ffd966;strokeColor=none;" vertex="1" parent="1">
          <mxGeometry x="287" y="-331" width="286" height="50" as="geometry" />
        </mxCell>
        <mxCell id="dXeh0rGKIshTzWoHDZAY-53" value="" style="rounded=0;whiteSpace=wrap;html=1;strokeWidth=10;fillColor=#cdeb8b;strokeColor=none;" vertex="1" parent="1">
          <mxGeometry x="287" y="-281" width="286" height="51" as="geometry" />
        </mxCell>
      </root>
    </mxGraphModel>
  </diagram>
</mxfile>
